<?xml version="1.0" standalone="no"?><!DOCTYPE svg PUBLIC "-//W3C//DTD SVG 1.1//EN" "http://www.w3.org/Graphics/SVG/1.1/DTD/svg11.dtd"><svg t="1575452017077" class="icon" viewBox="0 0 1024 1024" version="1.1" xmlns="http://www.w3.org/2000/svg" p-id="14031" xmlns:xlink="http://www.w3.org/1999/xlink" width="32" height="32"><defs><style type="text/css">@font-face { font-family: Georgia; src: local("Source Han Serif SC"); }
@font-face { font-family: Times; src: local("Source Han Serif SC"); }
@font-face { font-family: "Time New Roman"; src: local("Source Han Serif SC"); }
@font-face { font-family: Arial; src: local("Source Han Sans SC"); }
@font-face { font-family: Helvetica; src: local("Source Han Sans SC"); }
@font-face { font-family: "Helvetica Neue"; src: local("Source Han Sans SC"); }
@font-face { font-family: "Segoe UI"; src: local("Source Han Sans SC"); }
@font-face { font-family: Tahoma; src: local("Source Han Sans SC"); }
@font-face { font-family: Trebuchet; src: local("Source Han Sans SC"); }
@font-face { font-family: "Trebuchet MS"; src: local("Source Han Sans SC"); }
@font-face { font-family: Verdana; src: local("Source Han Sans SC"); }
@font-face { font-family: Consolas; src: local("Source Code Pro"); }
@font-face { font-family: Courier; src: local("Source Code Pro"); }
@font-face { font-family: "Courier New"; src: local("Source Code Pro"); }
@font-face { font-family: SimSun; src: local("Source Han Sans SC"); }
@font-face { font-family: SimSun-ExtB; src: local("Source Han Sans SC"); }
@font-face { font-family: 宋体; src: local("Source Han Sans SC"); }
@font-face { font-family: NSimSun; src: local("Source Han Sans SC"); }
@font-face { font-family: 新宋体; src: local("Source Han Sans SC"); }
@font-face { font-family: SimHei; src: local("Source Han Sans SC"); }
@font-face { font-family: 黑体; src: local("Source Han Sans SC"); }
@font-face { font-family: "Microsoft YaHei"; src: local("Source Han Sans SC"); }
@font-face { font-family: 微软雅黑; src: local("Source Han Sans SC"); }
@font-face { font-family: "STHeiti SC"; src: local("Source Han Sans SC"); }
@font-face { font-family: "PingFang SC"; src: local("Source Han Sans SC"); }
@font-face { font-family: 苹方-简; src: local("Source Han Sans SC"); }
@font-face { font-family: MingLiU; src: local("Source Han Sans TC"); }
@font-face { font-family: MingLiU-ExtB; src: local("Source Han Sans TC"); }
@font-face { font-family: PMingLiU; src: local("Source Han Sans TC"); }
@font-face { font-family: PMingLiU-ExtB; src: local("Source Han Sans TC"); }
@font-face { font-family: "Microsoft JhengHei"; src: local("Source Han Sans TC"); }
@font-face { font-family: 微軟正黑體; src: local("Source Han Sans TC"); }
@font-face { font-family: "STHeiti TC"; src: local("Source Han Sans TC"); }
@font-face { font-family: "PingFang TC"; src: local("Source Han Sans TC"); }
@font-face { font-family: 蘋方-繁; src: local("Source Han Sans TC"); }
@font-face { font-family: MingLiU_HKSCS; src: local("Source Han Sans HC"); }
@font-face { font-family: MingLiU_HKSCS-ExtB; src: local("Source Han Sans HC"); }
@font-face { font-family: "PingFang HK"; src: local("Source Han Sans HC"); }
@font-face { font-family: 蘋方-港; src: local("Source Han Sans HC"); }
@font-face { font-family: "MS Gothic"; src: local("Source Han Sans"); }
@font-face { font-family: "MS PGothic"; src: local("Source Han Sans"); }
@font-face { font-family: "MS UI Gothic"; src: local("Source Han Sans"); }
@font-face { font-family: "Yu Gothic"; src: local("Source Han Sans"); }
@font-face { font-family: "Yu Gothic UI"; src: local("Source Han Sans"); }
@font-face { font-family: "Malgun Gothic"; src: local("Source Han Sans K"); }
</style></defs><path d="M771.632 374.304a261.12 261.12 0 0 0-87.68-76.928c-62.224-33.824-125.904-37.472-150.384-37.472-7.312 0-11.408 0.304-12.048 0.368-86.96 11.472-140.208 52.576-169.584 85.008-32 35.36-43.248 68-43.968 70.24-32.784 132.336 52.048 177.92 108.192 208.096 19.648 10.528 38.208 20.464 45.744 31.056 32.576 45.616 18.384 98.176 6.992 140.4-3.776 14.016-7.328 27.248-8.928 39.056-5.36 40.304 2.352 73.6 22.96 98.976 37.296 46.144 103.408 49.712 122.784 49.712 11.664 0 22.624-1.04 31.728-3.04 47.6-10.48 87.6-35.44 118.88-74.176 26.592-32.832 46.864-75.632 60.256-127.184 24.08-92.896 21.136-196.864 10.352-263.2-9.024-55.152-27.616-102.576-55.296-140.912zM605.696 933.168c-29.312 0-67.472-8.432-86.608-32.112-11.664-14.384-15.648-34.016-12.192-60.032 1.104-8.32 4.208-19.776 7.744-32.88 6.464-24.08 13.792-51.392 14.704-81.568 1.184-38.336-8.72-72.544-29.504-101.712-14.048-19.664-36.304-31.616-62.08-45.456-26.736-14.336-54.4-29.184-71.552-51.632-18.64-24.384-22.816-56.512-13.088-97.2 4.048-10.528 43.328-103.344 172.848-120.832 1.04-0.064 3.712-0.176 7.568-0.176 49.68 0 214.304 15.44 246.64 214.032 9.92 61.088 12.672 156.672-9.392 241.776-24.496 94.496-72.656 150.304-143.056 165.84-3.408 0.736-10.832 1.952-22.032 1.952zM404.096 184.688c0-79.184-64.432-143.6-143.648-143.6-79.184 0-143.616 64.416-143.616 143.6 0 79.216 64.432 143.664 143.616 143.664 79.216 0 143.648-64.448 143.648-143.664z m-143.648 96.272a96.368 96.368 0 0 1-96.24-96.272 96.336 96.336 0 0 1 96.24-96.224 96.352 96.352 0 0 1 96.272 96.224 96.384 96.384 0 0 1-96.272 96.272zM506.528 190.56c39.904 0 72.352-32.448 72.352-72.336s-32.448-72.336-72.352-72.336c-39.888 0-72.336 32.448-72.336 72.336s32.448 72.336 72.336 72.336z m-0.016-113.936a41.664 41.664 0 0 1 41.616 41.6 41.648 41.648 0 0 1-41.616 41.584 41.632 41.632 0 0 1-41.584-41.584 41.664 41.664 0 0 1 41.584-41.6zM699.376 207.152a72.416 72.416 0 0 0 72.336-72.336c0-39.888-32.448-72.336-72.336-72.336S627.04 94.928 627.04 134.816a72.4 72.4 0 0 0 72.336 72.336z m0-113.92a41.648 41.648 0 0 1 41.616 41.584c0 22.944-18.672 41.6-41.616 41.6a41.632 41.632 0 0 1-41.584-41.6 41.632 41.632 0 0 1 41.584-41.584zM855.68 148.944a72.432 72.432 0 0 0-72.336 72.336 72.416 72.416 0 0 0 72.336 72.336 72.416 72.416 0 0 0 72.336-72.336 72.4 72.4 0 0 0-72.336-72.336z m0 113.936a41.648 41.648 0 0 1-41.6-41.616c0-22.928 18.656-41.584 41.6-41.584s41.616 18.656 41.616 41.584a41.664 41.664 0 0 1-41.616 41.616z" p-id="14032"></path></svg>