<?xml version="1.0" standalone="no"?><!DOCTYPE svg PUBLIC "-//W3C//DTD SVG 1.1//EN" "http://www.w3.org/Graphics/SVG/1.1/DTD/svg11.dtd"><svg t="1575451829540" class="icon" viewBox="0 0 1024 1024" version="1.1" xmlns="http://www.w3.org/2000/svg" p-id="9860" xmlns:xlink="http://www.w3.org/1999/xlink" width="32" height="32"><defs><style type="text/css">@font-face { font-family: Georgia; src: local("Source Han Serif SC"); }
@font-face { font-family: Times; src: local("Source Han Serif SC"); }
@font-face { font-family: "Time New Roman"; src: local("Source Han Serif SC"); }
@font-face { font-family: Arial; src: local("Source Han Sans SC"); }
@font-face { font-family: Helvetica; src: local("Source Han Sans SC"); }
@font-face { font-family: "Helvetica Neue"; src: local("Source Han Sans SC"); }
@font-face { font-family: "Segoe UI"; src: local("Source Han Sans SC"); }
@font-face { font-family: Tahoma; src: local("Source Han Sans SC"); }
@font-face { font-family: Trebuchet; src: local("Source Han Sans SC"); }
@font-face { font-family: "Trebuchet MS"; src: local("Source Han Sans SC"); }
@font-face { font-family: Verdana; src: local("Source Han Sans SC"); }
@font-face { font-family: Consolas; src: local("Source Code Pro"); }
@font-face { font-family: Courier; src: local("Source Code Pro"); }
@font-face { font-family: "Courier New"; src: local("Source Code Pro"); }
@font-face { font-family: SimSun; src: local("Source Han Sans SC"); }
@font-face { font-family: SimSun-ExtB; src: local("Source Han Sans SC"); }
@font-face { font-family: 宋体; src: local("Source Han Sans SC"); }
@font-face { font-family: NSimSun; src: local("Source Han Sans SC"); }
@font-face { font-family: 新宋体; src: local("Source Han Sans SC"); }
@font-face { font-family: SimHei; src: local("Source Han Sans SC"); }
@font-face { font-family: 黑体; src: local("Source Han Sans SC"); }
@font-face { font-family: "Microsoft YaHei"; src: local("Source Han Sans SC"); }
@font-face { font-family: 微软雅黑; src: local("Source Han Sans SC"); }
@font-face { font-family: "STHeiti SC"; src: local("Source Han Sans SC"); }
@font-face { font-family: "PingFang SC"; src: local("Source Han Sans SC"); }
@font-face { font-family: 苹方-简; src: local("Source Han Sans SC"); }
@font-face { font-family: MingLiU; src: local("Source Han Sans TC"); }
@font-face { font-family: MingLiU-ExtB; src: local("Source Han Sans TC"); }
@font-face { font-family: PMingLiU; src: local("Source Han Sans TC"); }
@font-face { font-family: PMingLiU-ExtB; src: local("Source Han Sans TC"); }
@font-face { font-family: "Microsoft JhengHei"; src: local("Source Han Sans TC"); }
@font-face { font-family: 微軟正黑體; src: local("Source Han Sans TC"); }
@font-face { font-family: "STHeiti TC"; src: local("Source Han Sans TC"); }
@font-face { font-family: "PingFang TC"; src: local("Source Han Sans TC"); }
@font-face { font-family: 蘋方-繁; src: local("Source Han Sans TC"); }
@font-face { font-family: MingLiU_HKSCS; src: local("Source Han Sans HC"); }
@font-face { font-family: MingLiU_HKSCS-ExtB; src: local("Source Han Sans HC"); }
@font-face { font-family: "PingFang HK"; src: local("Source Han Sans HC"); }
@font-face { font-family: 蘋方-港; src: local("Source Han Sans HC"); }
@font-face { font-family: "MS Gothic"; src: local("Source Han Sans"); }
@font-face { font-family: "MS PGothic"; src: local("Source Han Sans"); }
@font-face { font-family: "MS UI Gothic"; src: local("Source Han Sans"); }
@font-face { font-family: "Yu Gothic"; src: local("Source Han Sans"); }
@font-face { font-family: "Yu Gothic UI"; src: local("Source Han Sans"); }
@font-face { font-family: "Malgun Gothic"; src: local("Source Han Sans K"); }
</style></defs><path d="M86.803483 255.874645 320.953338 255.874645c6.963599-22.214954 15.225773-43.449581 24.448832-63.74993L86.803483 192.124715c-12.602016 0-22.829961 14.280238-22.829961 31.875988C63.974545 241.594407 74.201467 255.874645 86.803483 255.874645L86.803483 255.874645z" p-id="9861"></path><path d="M89.113085 579.782779l292.821115 0c-11.596106-20.200064-22.167882-41.430598-31.232328-63.940265L89.113085 515.842515c-13.44522 0-24.357757 14.292518-24.357757 31.971156C64.756351 565.492308 75.667865 579.782779 89.113085 579.782779L89.113085 579.782779z" p-id="9862"></path><path d="M864.956216 831.580572l-776.617773 0c-13.396101 0-24.26873 14.280238-24.26873 31.953759 0 17.674545 10.872628 31.955806 24.26873 31.955806l776.617773 0c13.419637 0 24.26873-14.280238 24.26873-31.955806C889.224945 845.86081 878.375853 831.580572 864.956216 831.580572L864.956216 831.580572z" p-id="9863"></path><path d="M954.333826 741.990115l-134.892223-137.825019c57.589626-49.586348 91.324962-119.535467 92.205005-201.487967 1.623987-151.293775-119.717615-275.266297-271.004227-276.889261-151.287635-1.623987-275.268344 119.719662-276.891308 271.007297-1.623987 151.282518 119.722732 275.262204 271.010367 276.886191 52.756551 0.566912 91.296309-4.558829 133.376707-29.933753l139.659807 142.688793c8.854669 9.05012 31.270191 2.25332 40.271192-6.604418 8.998955-8.804527 15.075347-28.844955 6.269797-37.842887L954.333826 741.990115zM635.458311 608.738251c-115.438149-1.237177-208.006428-95.837742-206.768227-211.250308 1.239224-115.430986 95.818299-208.001311 211.254402-206.762087 115.391077 1.238201 207.999264 95.818299 206.761064 211.249285C845.466326 517.387707 750.848365 609.978499 635.458311 608.738251L635.458311 608.738251z" p-id="9864"></path><path d="M634.73381 603.069135" p-id="9865"></path></svg>